<svg xmlns="http://www.w3.org/2000/svg" width="306" height="317" version="1.1"><rect id="backgroundrect" width="100%" height="100%" x="0" y="0" fill="none" stroke="none" class="" style=""/>
 
<g class="currentLayer" style=""><title>Layer 1</title><g fill="#ffffff" id="svg_1" class="selected" fill-opacity="1">
  <path d="m137.16682283461589,34.99564221608066 c-52.819853240931536,1.3677049683977898 -71.84473461559121,52.06233030698888 -74.61976889078916,79.34438478355268 c-10.719403968268114,137.3721904382174 -31.775516230360502,142.42324985668742 -57.3258494897678,143.8166455583343 c-7.011377264195289,0 -6.9116801346478685,11.759151338955382 0,11.759151338955382 h295.71581653948 c6.9116801346478685,0 7.011377264195289,-11.759151338955382 0,-11.759151338955382 c-25.550725767791334,-1.3943457441707545 -46.62999602454237,-8.491005056910824 -57.34939999281049,-145.86319549512822 c-2.2659901519300134,-25.745756545287787 -21.77518762166277,-75.93214871872419 -74.59621838774645,-77.2978348467588 c0,-47.256698540513476 -31.360634868424967,-46.06122836466869 -31.825364795134213,0 z" fill-rule="evenodd" id="svg_2" fill="#ffffff" fill-opacity="1"/>
  <path d="m122.91091832610262,276.16393689544424 a31.39831567329329,31.66570902202911 0 0 0 -1.2309455432034289,8.689326433764544 a31.39831567329329,31.66570902202911 0 0 0 31.400670723597557,31.66887583044194 a31.39831567329329,31.66570902202911 0 0 0 31.400670723597557,-31.66887583044194 a31.39831567329329,31.66570902202911 0 0 0 -1.2085725653128658,-8.689326433764544 h-60.35993929843541 z" color="#000000" color-rendering="auto" image-rendering="auto" shape-rendering="auto" solid-color="#000000" style="isolation:auto;mix-blend-mode:normal" id="svg_3" fill="#ffffff" fill-opacity="1"/>
 </g></g></svg>