<svg xmlns="http://www.w3.org/2000/svg" enable-background="new 0 0 88.061 100" width="88" height="88"><rect id="backgroundrect" width="100%" height="100%" x="0" y="0" fill="none" stroke="none" class="" style=""/>
 
 
 
 
<g class="currentLayer" style=""><title>Layer 1</title><path d="m44.03,12.008999870300293 c-1.6580000000000001,0 -3.002,1.344 -3.002,3.002 v26.018 h-26.018 c-1.6580000000000001,0 -3.002,1.344 -3.002,3.002 s1.344,3.002 3.002,3.002 h29.02 c1.6580000000000001,0 3.002,-1.344 3.002,-3.002 v-29.02 c0,-1.6580000000000001 -1.344,-3.002 -3.002,-3.002 z" id="svg_2" class="" fill="#ffffff" fill-opacity="1"/><path d="m44.03,-1.2969970697440658e-7 c-24.278,0 -44.03,19.752 -44.03,44.03 s19.752,44.031 44.03,44.031 s44.03,-19.752 44.03,-44.031 s-19.751,-44.03 -44.03,-44.03 zm0,82.057 c-20.968,0 -38.026,-17.059 -38.026,-38.026 s17.058,-38.027 38.026,-38.027 s38.026,17.059 38.026,38.026 s-17.058,38.027 -38.026,38.027 z" id="svg_4" class="" stroke="#ffffff" stroke-opacity="1" fill="#ffffff" fill-opacity="1"/></g></svg>