<svg xmlns="http://www.w3.org/2000/svg" width="327" height="333" version="1.1"><rect id="backgroundrect" width="100%" height="100%" x="0" y="0" fill="none" stroke="none" class="" style=""/>
 
<g class="currentLayer" style=""><title>Layer 1</title><g id="svg_1" class="" fill="#ffffff" fill-opacity="1">
  <path d="m35.8412967142121,36.57233854553626 a122.3766755248415,124.8757152858004 0 0 0 0,176.59684487681275 a122.3766755248415,124.8757152858004 0 0 0 151.27423083646326,17.5042669307857 l100.60857218073306,102.66308805228014 l38.93881266174312,-39.73272758833285 l-100.60857218073306,-102.66308805228014 a122.3766755248415,124.8757152858004 0 0 0 -17.153967763759066,-154.36755088115893 a122.3766755248415,124.8757152858004 0 0 0 -173.0627507096883,0 zm28.84896397232425,29.4385019565311 a81.58445034989434,83.25047685720027 0 0 1 115.36155612038112,0 a81.58445034989434,83.25047685720027 0 0 1 0,117.71734094943052 a81.58445034989434,83.25047685720027 0 0 1 -115.36155612038112,0 a81.58445034989434,83.25047685720027 0 0 1 0,-117.71734094943052 z" color="#000000" color-rendering="auto" fill="#ffffff" image-rendering="auto" shape-rendering="auto" solid-color="#000000" style="isolation:auto;mix-blend-mode:normal" id="svg_2" fill-opacity="1"/>
 </g></g></svg>