<svg xmlns="http://www.w3.org/2000/svg" width="18.787234033918736" height="18.787234033918736" style=""><rect id="backgroundrect" width="100%" height="100%" x="0" y="0" fill="none" stroke="none" class="" style=""/><g class="currentLayer" style=""><title>Layer 1</title><path d="M13.031914874911308,11.531914934515953 h-0.79 l-0.28,-0.27 C12.941914874911308,10.121914934515953 13.531914874911308,8.641914934515954 13.531914874911308,7.031914934515953 C13.531914874911308,3.441914934515953 10.621914874911308,0.5319149345159535 7.031914874911309,0.5319149345159535 S0.5319148749113087,3.441914934515953 0.5319148749113087,7.031914934515953 S3.4419148749113084,13.531914934515953 7.031914874911309,13.531914934515953 c1.61,0 3.09,-0.5900000000000006 4.23,-1.57 l0.27,0.28 v0.79 l5,4.99 L18.021914874911307,16.531914934515953 l-4.99,-5 zm-6,0 C4.541914874911308,11.531914934515953 2.5319148749113083,9.521914934515955 2.5319148749113083,7.031914934515953 S4.541914874911308,2.531914934515953 7.031914874911309,2.531914934515953 S11.531914874911308,4.541914934515953 11.531914874911308,7.031914934515953 S9.521914874911309,11.531914934515953 7.031914874911309,11.531914934515953 z" id="svg_1" class="selected" stroke="#ffffff" stroke-opacity="1" fill="#ffffff" fill-opacity="1"/></g></svg>