<svg xmlns="http://www.w3.org/2000/svg" xmlns:xlink="http://www.w3.org/1999/xlink" version="1.1" width="124" height="113" style="" xml:space="preserve"><rect id="backgroundrect" width="100%" height="100%" x="0" y="0" fill="none" stroke="none" class="" style=""/>
















<g class="currentLayer" style=""><title>Layer 1</title><g id="svg_1" class="selected" fill="#ffffff" fill-opacity="1">
	<path d="M112,1 H12 C5.4,1 0,6.4 0,13 s5.4,12 12,12 h100 c6.6,0 12,-5.4 12,-12 S118.6,1 112,1 z" id="svg_2" fill="#ffffff" fill-opacity="1"/>
	<path d="M112,45 H12 C5.4,45 0,50.4 0,57 c0,6.6 5.4,12 12,12 h100 c6.6,0 12,-5.4 12,-12 C124,50.4 118.6,45 112,45 z" id="svg_3" fill="#ffffff" fill-opacity="1"/>
	<path d="M112,89 H12 c-6.6,0 -12,5.4 -12,12 s5.4,12 12,12 h100 c6.6,0 12,-5.4 12,-12 S118.6,89 112,89 z" id="svg_4" fill="#ffffff" fill-opacity="1"/>
</g><g id="svg_5" class="">
</g><g id="svg_6" class="">
</g><g id="svg_7" class="">
</g><g id="svg_8" class="">
</g><g id="svg_9" class="">
</g><g id="svg_10" class="">
</g><g id="svg_11" class="">
</g><g id="svg_12" class="">
</g><g id="svg_13" class="">
</g><g id="svg_14" class="">
</g><g id="svg_15" class="">
</g><g id="svg_16" class="">
</g><g id="svg_17" class="">
</g><g id="svg_18" class="">
</g><g id="svg_19" class="">
</g></g></svg>