<svg xmlns="http://www.w3.org/2000/svg" width="266" height="264" style=""><rect id="backgroundrect" width="100%" height="100%" x="0" y="0" fill="none" stroke="none" class="" style=""/>
 
 
<g class="currentLayer" style=""><title>Layer 1</title><text x="0.00977" y="13.55481" font-family="Times New Roman" font-size="14.993px" xml:space="preserve" id="svg_1" class="" transform="matrix(1,0,0,1,0,0) "/><path d="m16.00635576248169,2.860242146492006 c-3.9731,0 -7.9374,1.5311 -10.969,4.5625 c-6.0627,6.0627 -6.0627,15.875 0,21.938 c3.2523,3.2524 7.5864,4.7683 11.844,4.5312 l39.375,39.406 l-39.188,39.188 l34.75,-11.781 l9.6562,-9.6562 l44.531,44.5 l-95.375,95.375 l-5.5,32.625 l32.656,-5.4688 l95.344,-95.344 l95.438,95.406 l32.656,5.4688 l-5.4688,-32.688 l-95.406,-95.406 l44.5,-44.5 l9.6875,9.6875 l34.75,11.781 l-39.25,-39.25 l39.375,-39.344 c4.2574,0.2370600000000002 8.5914,-1.2789000000000001 11.844,-4.5312 c6.0627,-6.0627 6.0627,-15.875 0,-21.938 c-3.0314,-3.0314 -6.9956,-4.5625 -10.969,-4.5625 c-3.9731,0 -7.9374,1.5311 -10.969,4.5625 c-3.2524,3.2524 -4.7683,7.5864 -4.5312,11.844 l-39.375,39.344 l-39.188,-39.219 l11.781,34.781 l9.6875,9.6875 l-44.5,44.5 l-44.5,-44.5 l9.625,-9.6562 l11.781,-34.75 l-39.156,39.156 l-39.438,-39.438 c0.21019000000000004,-4.2275 -1.2713,-8.5213 -4.5,-11.75 c-3.0314,-3.0314 -7.0269,-4.5625 -11,-4.5625 z" fill-rule="evenodd" id="svg_2" class="" fill="#ffffff" fill-opacity="1" transform="rotate(179.75 133.14682006835935,133.23480224609378) "/></g></svg>